<?xml version="1.0" encoding="UTF-8"?>
<svg version="1.1" xmlns="http://www.w3.org/2000/svg" width="32" height="32">
<path d="M0 0 C4.29 0 8.58 0 13 0 C13.66 1.65 14.32 3.3 15 5 C15.66 5 16.32 5 17 5 C17.66 3.35 18.32 1.7 19 0 C23.29 0 27.58 0 32 0 C31.20772725 3.96136373 30.7209808 5.90074359 28.85546875 9.21484375 C28.42556641 9.98376953 27.99566406 10.75269531 27.55273438 11.54492188 C27.10220703 12.33447266 26.65167969 13.12402344 26.1875 13.9375 C25.74857422 14.72318359 25.30964844 15.50886719 24.85742188 16.31835938 C22.40436699 20.6740809 19.83510251 24.88282316 17 29 C13.11742394 27.70580798 12.68803247 26.28264007 10.64453125 22.79296875 C9.71157227 21.2006543 9.71157227 21.2006543 8.75976562 19.57617188 C8.11716797 18.45791016 7.47457031 17.33964844 6.8125 16.1875 C6.15830078 15.08083984 5.50410156 13.97417969 4.83007812 12.83398438 C0 4.50852125 0 4.50852125 0 0 Z " fill="#40B582" transform="translate(0,1)"/>
<path d="M0 0 C1.98 0 3.96 0 6 0 C6.66 1.65 7.32 3.3 8 5 C8.66 5 9.32 5 10 5 C10.66 3.35 11.32 1.7 12 0 C13.98 0 15.96 0 18 0 C17.40740672 4.37544904 15.78843172 7.52240004 13.5625 11.3125 C12.94503906 12.38113281 12.32757813 13.44976562 11.69140625 14.55078125 C11.13324219 15.35902344 10.57507812 16.16726562 10 17 C9.34 17 8.68 17 8 17 C6.65869239 14.73354942 5.32683766 12.46239903 4 10.1875 C3.42765625 9.22360352 3.42765625 9.22360352 2.84375 8.24023438 C0 3.33984375 0 3.33984375 0 0 Z " fill="#354C5F" transform="translate(7,1)"/>
</svg>
